<svg xmlns="http://www.w3.org/2000/svg" version="1.1" xmlns:xlink="http://www.w3.org/1999/xlink" xmlns:svgjs="http://svgjs.dev/svgjs" width="100%" height="100%" viewBox="0 0 1000 600"><rect width="1000" height="600" x="0" y="0" fill="#e7d045"/><g><rect width="333.3333333333333" height="333.3333333333333" rx="13.333333333333334" ry="13.333333333333334" y="205.6550645191307" fill="#a04ef6" transform="matrix(0.6814483467889099,0,0,0.6814483467889099,0,46.281983602617544)" x="183.43287658691406"/><path d="M287.6530687125313 358.2600858316702L307.17457342063915 358.2600858316702Q306.75565701059395 363.28708275221294 303.7394588582682 369.9059620309277L303.7394588582682 369.9059620309277Q296.115180195445 369.12398473217655 289.2728788313729 369.12398473217655L289.2728788313729 369.12398473217655L285.6422699443142 369.12398473217655Q276.3981811626494 413.94804060701637 276.3981811626494 425.00743383221055L276.3981811626494 425.00743383221055Q276.3981811626494 430.84433581217417 278.9116796229208 430.84433581217417Q281.42517808319224 430.84433581217417 292.2890769836986 425.8173388916313L292.2890769836986 425.8173388916313L295.89175811008755 432.4641459310157Q278.017991281491 447.32171460728665 262.71357843450517 447.32171460728665L262.71357843450517 447.32171460728665Q255.67578274574527 447.32171460728665 251.15148551725676 442.90912842147685Q246.62718828876825 438.49654223566705 246.62718828876825 431.15154117954063Q246.62718828876825 423.8065401234142 248.35870945028853 414.5624513417494Q250.06230285113915 405.3183625600846 253.07850100346482 391.94096519930685Q256.0946991557905 378.5635678385291 257.4910871892746 370.3248784409729L257.4910871892746 370.3248784409729Q250.06230285113915 370.9113614150362 246.43169396408047 371.52577214976924L246.43169396408047 371.52577214976924Q246.04070531470492 369.12398473217655 246.04070531470492 364.9906761530636Q246.04070531470492 360.8573675739506 246.62718828876825 358.2600858316702L246.62718828876825 358.2600858316702L259.3063916328039 358.2600858316702Q260.9262017516455 347.39618693116387 260.9262017516455 337.73318173945376L260.9262017516455 337.73318173945376L260.70277966628805 331.5052911101147L260.70277966628805 330.9188081360514Q276.3981811626494 325.47289480546334 290.27827821548146 325.47289480546334L290.27827821548146 325.47289480546334Q291.08818327490224 329.49449234189757 291.08818327490224 335.5268886465489Q291.08818327490224 341.55928495120025 287.6530687125313 358.2600858316702L287.6530687125313 358.2600858316702ZM395.03530848745925 425.6218445669436L398.8614116992057 432.65964025570344Q381.7696221693602 447.32171460728665 368.783213457958 447.32171460728665Q355.82473250722546 447.32171460728665 353.81393373900835 434.4749446992328L353.81393373900835 434.4749446992328Q347.781537434357 440.50734100388416 340.3527530962216 443.91452780558535Q332.89604099741643 447.32171460728665 327.2825611028103 447.32171460728665L327.2825611028103 447.32171460728665Q317.6195559111003 447.32171460728665 310.7772545470282 438.8875308850426Q303.934953182956 430.4533471627986 303.934953182956 412.74714689822014L303.934953182956 412.74714689822014Q303.934953182956 386.2157742620221 315.2177684935076 371.02307245771493Q326.4726560433895 355.8303706534079 340.6320307029184 355.8303706534079Q354.8193331231169 355.8303706534079 364.48233831482696 362.28168336810444L364.48233831482696 362.28168336810444Q370.71022894416603 329.6899866665854 370.71022894416603 311.00631477856797L370.71022894416603 311.00631477856797L369.70482956005753 302.54420329565426Q384.7858203216859 297.3217120504237 399.2524003485812 297.3217120504237L399.2524003485812 297.3217120504237Q400.87221046742275 300.7568266127946 400.87221046742275 305.1694127986044L400.87221046742275 305.1694127986044Q400.87221046742275 319.8594149108572 392.0191103351335 364.79518182837586Q383.1660102028443 409.7309487458944 383.1660102028443 425.8173388916313L383.1660102028443 425.8173388916313Q383.1660102028443 430.6488414874863 385.3723032957492 430.6488414874863L385.3723032957492 430.6488414874863Q386.6011247652152 430.6488414874863 393.02450971924213 426.8227382757398L393.02450971924213 426.8227382757398L395.03530848745925 425.6218445669436ZM350.40674693730716 367.69966893802274L350.40674693730716 367.69966893802274Q343.3689512485472 367.69966893802274 338.23024328532574 381.5797659908548Q333.09153532210416 395.4598630436869 333.09153532210416 409.0327547291524Q333.09153532210416 422.60564641461787 335.0185508083123 426.43174962636436Q336.91763853385066 430.2299250774411 340.7437417455971 430.2299250774411L340.7437417455971 430.2299250774411Q347.39054878498143 430.2299250774411 353.81393373900835 424.8119395075228L353.81393373900835 424.8119395075228Q354.4283444737414 416.76874443465437 362.8625281959854 371.3302778250814L362.8625281959854 371.3302778250814Q356.0202268319132 367.69966893802274 350.40674693730716 367.69966893802274ZM420.05858204749444 447.32171460728665Q413.1324974014133 447.32171460728665 408.60820017292474 442.713634096789Q404.0839029444362 438.07762582562185 404.0839029444362 429.7272253853868Q404.0839029444362 421.4047527058215 414.02618574284304 376.44105802763323Q423.9963963019196 331.5052911101147 423.9963963019196 311.59279775263127L423.9963963019196 311.59279775263127L422.7955025931233 302.7676253810117Q438.462976328815 297.3217120504237 452.1475790569592 297.3217120504237L452.1475790569592 297.3217120504237Q454.15837782517633 300.1424158780616 454.15837782517633 307.1802115668215L454.15837782517633 307.1802115668215Q454.15837782517633 323.26660171255844 443.992672941412 369.4032623388734Q433.85489581831746 415.567850725858 433.85489581831746 423.1083461066722Q433.85489581831746 430.6488414874863 435.6422725011771 430.6488414874863L435.6422725011771 430.6488414874863L449.7178638786969 425.6218445669436L453.34847276575556 432.65964025570344Q446.50617140168345 438.07762582562185 436.75938292796434 442.713634096789Q427.01259445424523 447.32171460728665 420.05858204749444 447.32171460728665Z " fill="#e7d045" transform="matrix(0.6814483467889099,0,0,0.6814483467889099,0,46.281983602617544)"/><path d="M620.8749299717333 297.3217132595225L620.8749299717333 297.3217132595225L689.6023094119605 299.5792862224239L708.9488523978373 299.1792100011503Q709.5489667297478 303.4943178163163 709.5489667297478 308.2380787257041Q709.5489667297478 312.95326276214377 707.920084971705 315.01079761440843Q706.2626263407141 317.068332466673 701.947518525548 317.068332466673L701.947518525548 317.068332466673Q701.5474423042743 317.068332466673 672.9419924832068 314.41068328249787L672.9419924832068 314.41068328249787Q672.1132631677115 323.66959011768853 666.7693879264132 346.0738585090142Q661.4255126851148 368.50670377328794 656.4817136650902 394.0258513159585Q651.5379146450655 419.54499885862907 651.3378765344287 439.92030927063826L651.3378765344287 439.92030927063826Q643.307775236007 444.0353789751675 618.4173188981952 444.0353789751675L618.4173188981952 444.0353789751675L616.959898377841 444.0353789751675Q616.959898377841 433.3190516196227 628.7049931595182 380.251798554965Q640.421511068247 327.1559686173591 640.421511068247 315.639488819267L640.421511068247 315.639488819267Q640.421511068247 314.8107595037715 640.0214348469733 312.75322465150697L640.0214348469733 312.75322465150697L631.791295437915 312.75322465150697Q614.9023635255764 312.75322465150697 605.8720716739707 317.89706178216846L605.8720716739707 317.89706178216846Q601.1283107645829 311.7244572253747 600.0995433384505 299.7793243330608L600.0995433384505 299.7793243330608Q607.1008772107398 297.3217132595225 620.8749299717333 297.3217132595225ZM716.1502243807635 445.86429884384705L716.1502243807635 445.86429884384705Q701.947518525548 445.86429884384705 693.9174172271265 435.89097018495346Q685.887315928705 425.91764152605975 685.887315928705 408.028519060537L685.887315928705 408.028519060537Q685.887315928705 385.1670207020415 698.1467944234482 368.70674188392474Q710.3776960452433 352.246463065808 731.9818119940215 352.246463065808L731.9818119940215 352.246463065808L739.3832220875845 352.67511616002975Q742.8981774602031 350.817619418402 747.2132852753692 350.817619418402L747.2132852753692 350.817619418402Q763.4735259828491 350.817619418402 763.4735259828491 381.48060409173405L763.4735259828491 381.48060409173405Q771.9037035025443 381.0519509975123 780.5339191328763 379.2230311288327L780.5339191328763 379.2230311288327L783.8488363948583 378.3943018133372L785.0776419316273 386.42440311175875Q778.276346169975 389.2820904065707 766.7598663718828 391.56824024242025L766.7598663718828 391.56824024242025L762.6447966673536 392.36839268496755Q758.7297650734613 413.9725086337458 746.8132090540955 429.9184037387965Q734.8680761617816 445.86429884384705 716.1502243807635 445.86429884384705ZM727.2666279575818 428.1752144889612L727.2666279575818 428.1752144889612Q735.8968435879138 428.1752144889612 742.7838699684106 417.05881091214275Q749.6708963489074 405.97098420827245 752.3571224060306 393.6257750946848L752.3571224060306 393.6257750946848Q730.3529302359788 393.6257750946848 730.3529302359788 377.16549627656804L730.3529302359788 377.16549627656804Q730.3529302359788 370.5642386255525 733.0105794201538 364.8202871629805L733.0105794201538 364.8202871629805L734.0393468462861 362.76275231071594Q733.2106175307907 362.33409921649405 731.9818119940215 362.33409921649405Q730.7530064572524 362.33409921649405 730.1243152523938 362.76275231071594L730.1243152523938 362.76275231071594Q724.9804781217323 366.04909269974956 720.4653321959294 378.1942637027003Q715.9501862701266 390.310857832703 715.9501862701266 405.97098420827245L715.9501862701266 405.97098420827245Q715.9501862701266 428.1752144889612 727.2666279575818 428.1752144889612ZM828.4859119398207 445.86429884384705L828.4859119398207 445.86429884384705Q816.5407790475068 445.86429884384705 803.7954937126456 441.9778441229028L803.7954937126456 441.9778441229028Q793.1077432300489 444.635493307078 785.1633725504718 444.635493307078Q777.2475787438426 444.635493307078 774.3613145760826 444.2354170858043L774.3613145760826 444.2354170858043Q775.8187350964366 432.0902460828535 786.8208311814626 382.59510213671075Q797.8229272664886 333.12853506351604 797.8229272664886 326.44154679365613Q797.8229272664886 319.7545585237962 795.0509705905209 314.8107595037715Q792.2790139145535 309.8669604837469 789.5927878574302 307.6093875208454L789.5927878574302 307.6093875208454L786.7065236896701 305.35181455794407L787.3352148945288 302.2655122795471Q792.6790901358271 300.8080917591931 809.2536764457363 299.0649025093578Q825.7996858826974 297.3217132595225 838.144894996285 297.3217132595225L838.144894996285 297.3217132595225Q866.7503448173526 297.3217132595225 881.467434385634 309.98126797553937Q896.1845239539156 322.64082269155625 896.1845239539156 351.0176575290388L896.1845239539156 351.0176575290388Q896.1845239539156 374.279232108808 888.4687682579232 395.569002455157Q880.7530125619311 416.85877280150595 864.8928480757248 431.37582425915053Q849.0612604624666 445.86429884384705 828.4859119398207 445.86429884384705ZM843.0886940163097 310.29561357796865L843.0886940163097 310.29561357796865Q837.7448187750114 310.29561357796865 830.9435230133589 311.52441911473784L830.9435230133589 311.52441911473784Q828.8859881610944 333.32857317415295 819.3413125964224 375.1936920431478Q809.7680601588025 417.05881091214275 808.1106015278116 428.603867583183L808.1106015278116 428.603867583183Q813.0544005478363 431.06147865672125 821.6846161781683 431.06147865672125Q830.3434086814485 431.06147865672125 838.0591643774407 424.1744522762245Q845.7749200734329 417.2874258957277 850.4901041098726 406.99975163440473Q855.2338650192604 396.71207737308174 858.7202435189309 383.9382151652723L858.7202435189309 383.9382151652723Q864.6928099650879 361.105293679725 864.6928099650879 342.38744189870675Q864.6928099650879 323.66959011768853 859.7490109450633 316.9826018478286Q854.8337887979868 310.29561357796865 843.0886940163097 310.29561357796865ZM932.1913838685459 445.86429884384705L932.1913838685459 445.86429884384705Q917.9886780133306 445.86429884384705 909.9585767149091 435.89097018495346Q901.9284754164875 425.91764152605975 901.9284754164875 408.028519060537L901.9284754164875 408.028519060537Q901.9284754164875 385.1670207020415 914.1879539112307 368.70674188392474Q926.4188555330257 352.246463065808 948.0229714818041 352.246463065808L948.0229714818041 352.246463065808L955.424381575367 352.67511616002975Q958.9393369479857 350.817619418402 963.2544447631517 350.817619418402L963.2544447631517 350.817619418402Q979.5146854706317 350.817619418402 979.5146854706317 381.48060409173405L979.5146854706317 381.48060409173405Q987.9448629903269 381.0519509975123 996.5750786206589 379.2230311288327L996.5750786206589 379.2230311288327L999.8899958826407 378.3943018133372L1001.1188014194098 386.42440311175875Q994.3175056577575 389.2820904065707 982.8010258596654 391.56824024242025L982.8010258596654 391.56824024242025L978.6859561551362 392.36839268496755Q974.7709245612438 413.9725086337458 962.854368541878 429.9184037387965Q950.9092356495642 445.86429884384705 932.1913838685459 445.86429884384705ZM943.3077874453644 428.1752144889612L943.3077874453644 428.1752144889612Q951.9380030756964 428.1752144889612 958.8250294561932 417.05881091214275Q965.71205583669 405.97098420827245 968.3982818938132 393.6257750946848L968.3982818938132 393.6257750946848Q946.3940897237613 393.6257750946848 946.3940897237613 377.16549627656804L946.3940897237613 377.16549627656804Q946.3940897237613 370.5642386255525 949.0517389079363 364.8202871629805L949.0517389079363 364.8202871629805L950.0805063340687 362.76275231071594Q949.2517770185733 362.33409921649405 948.0229714818041 362.33409921649405Q946.7941659450349 362.33409921649405 946.1654747401764 362.76275231071594L946.1654747401764 362.76275231071594Q941.0216376095149 366.04909269974956 936.5064916837119 378.1942637027003Q931.9913457579091 390.310857832703 931.9913457579091 405.97098420827245L931.9913457579091 405.97098420827245Q931.9913457579091 428.1752144889612 943.3077874453644 428.1752144889612ZM1080.13385512096 433.5190897302595Q1077.6476671744736 439.92030927063826 1072.4180994249677 443.6067258809457Q1067.1599548025138 447.3217193642012 1060.0728903113802 447.3217193642012Q1052.9572489472985 447.3217193642012 1038.8688505838754 438.662926860921Q1024.7804522204528 430.032711230589 1016.3502747007575 427.5751001570507L1016.3502747007575 427.5751001570507Q1010.7777844758742 434.97651025061356 1003.776450603585 439.92030927063826Q996.8036936042439 444.8355314177148 994.1174675471207 444.8355314177148L994.1174675471207 444.8355314177148Q992.059932694856 444.8355314177148 985.8873281380623 435.89097018495346Q979.7147235812685 426.94640895219203 979.7147235812685 423.0313773582997L979.7147235812685 423.0313773582997Q979.7147235812685 420.77380439539826 986.2016737404915 416.25865846959533Q992.6886238997147 411.71493567084434 999.8899958826407 410.08605391280156L999.8899958826407 410.08605391280156Q1005.0338330133022 397.51222981562904 1010.5777463652374 372.93611908024644Q1016.1216597171725 348.36000834486373 1019.2079619955695 322.2121695973345L1019.2079619955695 322.2121695973345Q1019.2079619955695 318.92582920830074 1017.0646965244606 314.29637579070544Q1014.8928541804033 309.6669223731101 1012.635281217502 306.78065820535L1012.635281217502 306.78065820535L1010.5777463652374 303.8943940375899L1011.206437570096 300.8080917591931Q1023.5516466836835 297.3217132595225 1051.7284434105295 297.3217132595225L1051.7284434105295 297.3217132595225Q1054.4146694676524 301.83685918532535 1054.4146694676524 311.09576602051607Q1054.4146694676524 320.3546728557067 1049.0422173534062 338.67244841545124Q1043.6983421121076 356.99022397519576 1034.3537046580727 382.59510213671075Q1024.9804903310896 408.2285571711738 1023.5516466836835 412.9437412076135L1023.5516466836835 412.9437412076135Q1024.351799126231 413.1723561911985 1028.6954838143452 414.4011617279676Q1033.010591629511 415.62996726473676 1034.3537046580727 415.94431286716605Q1035.6682408136862 416.25865846959533 1039.5832724075785 417.17311840393523Q1043.4983040014708 418.087578338275 1045.7558769643724 418.4019239407043Q1048.0134499272738 418.7162695431337 1051.7284434105295 419.1163457644073L1051.7284434105295 419.1163457644073Q1058.1010860779597 420.1451131905396 1063.7593069216878 420.1451131905396Q1069.4175277654153 420.1451131905396 1071.9037157119014 417.2874258957277L1071.9037157119014 417.2874258957277L1077.6476671744736 406.57109854018296L1084.448962936126 408.2285571711738Q1084.448962936126 421.60253371089374 1080.13385512096 433.5190897302595L1080.13385512096 433.5190897302595ZM1133.2011081856176 365.0203252736173Q1133.2011081856176 373.65054090394943 1127.6571948336825 394.7402731396615Q1122.0847046087993 415.83000537537356 1122.0847046087993 422.31695553459673Q1122.0847046087993 428.8039056938198 1123.942201350427 428.8039056938198L1123.942201350427 428.8039056938198Q1125.1710068871962 428.8039056938198 1133.4011462962544 424.8888740999275L1133.4011462962544 424.8888740999275L1135.887334242741 423.6600685631583L1139.3737127424115 430.86144054608445Q1137.5162160007837 432.49032230412723 1134.4299137223868 434.97651025061356Q1131.3436114439899 437.4341213241518 1122.9134339242946 441.6634985204735Q1114.4832564045996 445.86429884384705 1107.2818844216736 445.86429884384705Q1100.0805124387473 445.86429884384705 1095.965442734218 441.4634604098367Q1091.8503730296889 437.0340451028782 1091.8503730296889 429.5183275175228Q1091.8503730296889 422.00260993216733 1096.9942101603506 402.770374438083Q1102.1380472910118 383.5381389439987 1102.1380472910118 377.76561060847854L1102.1380472910118 377.76561060847854Q1102.1380472910118 369.1353949781465 1096.7941720497138 361.5053699009987L1096.7941720497138 361.5053699009987L1094.9366753080858 359.0477588274603L1095.1367134187226 356.3615327703372Q1106.0530788849042 353.27523049194025 1130.5434590014424 353.27523049194025L1130.5434590014424 353.27523049194025Q1133.2011081856176 356.3615327703372 1133.2011081856176 365.0203252736173ZM1109.7394954952117 330.7566546088222Q1105.6244257906824 326.75589239608547 1105.6244257906824 319.954596634433Q1105.6244257906824 313.1533008727807 1111.2826466344102 308.0094637421191Q1116.9408674781378 302.8656266114576 1124.3708544446488 302.8656266114576Q1131.7722645382119 302.8656266114576 1135.887334242741 306.98069631598685Q1140.00240394727 311.09576602051607 1140.00240394727 317.782754290376Q1140.00240394727 324.46974256023594 1134.1441449929057 329.61357969089744Q1128.2573091655931 334.75741682155893 1121.055937182667 334.75741682155893Q1113.854565199741 334.75741682155893 1109.7394954952117 330.7566546088222ZM1210.158627034903 416.45869658023224L1210.158627034903 416.45869658023224Q1210.158627034903 429.4040200257303 1198.7278778556556 437.6341594347887Q1187.325705549356 445.86429884384705 1172.722923472867 445.86429884384705Q1158.0915645234295 445.86429884384705 1149.5756563848902 439.6916942870533Q1141.0311713734025 433.5190897302595 1141.0311713734025 428.8039056938198L1141.0311713734025 428.8039056938198Q1141.0311713734025 425.91764152605975 1148.2325433563285 419.4306913668366Q1155.4339153392546 412.9437412076135 1160.3777143592793 411.51489756020754L1160.3777143592793 411.51489756020754Q1170.6653886206022 419.1163457644073 1177.2380693986697 435.57662458252406L1177.2380693986697 435.57662458252406Q1184.8395176028694 434.97651025061356 1184.8395176028694 428.375252599598L1184.8395176028694 428.375252599598Q1184.8395176028694 418.9163076537705 1168.1792006741157 401.54156890131395Q1151.5188837453622 384.1382532759092 1151.5188837453622 373.85057901458623Q1151.5188837453622 363.56290475326324 1160.7777905805528 357.90468390953555Q1170.0366974157437 352.246463065808 1183.096328353034 352.246463065808Q1196.1559592903245 352.246463065808 1202.7572169413402 356.8759164834033Q1209.3298977194077 361.5053699009987 1209.3298977194077 369.4497405805758Q1209.3298977194077 377.36553438720495 1196.784650495183 391.33962525883527L1196.784650495183 391.33962525883527Q1198.2134941425893 392.7970457791893 1200.4996439784388 395.16892623388327Q1202.7572169413402 397.51222981562904 1206.4436335516475 404.1134874666447Q1210.158627034903 410.68616824471206 1210.158627034903 416.45869658023224ZM1190.4120078277529 384.1382532759092Q1199.042223458085 376.73684318234626 1199.042223458085 369.5354711994202Q1199.042223458085 362.33409921649405 1189.1832022909834 362.33409921649405L1189.1832022909834 362.33409921649405Q1184.4394413815958 362.33409921649405 1181.3531391031988 364.3059034499143Q1178.2668368248019 366.2491308103865 1178.2668368248019 368.70674188392474L1178.2668368248019 368.70674188392474Q1178.2668368248019 373.2504646826757 1187.325705549356 381.48060409173405L1187.325705549356 381.48060409173405L1190.4120078277529 384.1382532759092ZM1264.0546094150563 354.7326510122943L1284.029843605792 354.7326510122943Q1283.6011905115702 359.8764881429558 1280.5148882331732 366.6492070316602L1280.5148882331732 366.6492070316602Q1272.7134019183363 365.84905458911277 1265.712068046047 365.84905458911277L1265.712068046047 365.84905458911277L1261.9970745627916 365.84905458911277Q1252.5381296169644 411.71493567084434 1252.5381296169644 423.0313773582997L1252.5381296169644 423.0313773582997Q1252.5381296169644 429.0039438044567 1255.110048182295 429.0039438044567Q1257.6819667476257 429.0039438044567 1268.798370324444 423.8601066737951L1268.798370324444 423.8601066737951L1272.5133638077 430.66140243544754Q1254.1955882479551 445.86429884384705 1238.564038745334 445.86429884384705L1238.564038745334 445.86429884384705Q1231.362666762408 445.86429884384705 1226.7332133448126 441.34915291804424Q1222.1037599272172 436.8340069922413 1222.1037599272172 429.318289406886Q1222.1037599272172 421.80257182153053 1223.8469491770525 412.343626875703Q1225.5901384268877 402.8846819298755 1228.6764407052847 389.1963597877263Q1231.7627429836816 375.5080376455772 1233.1915866310874 367.07786012588195L1233.1915866310874 367.07786012588195Q1225.5901384268877 367.67797445779246 1221.8751449436322 368.306665662651L1221.8751449436322 368.306665662651Q1221.4750687223586 365.84905458911277 1221.4750687223586 361.61967739279106Q1221.4750687223586 357.39030019646947 1222.1037599272172 354.7326510122943L1222.1037599272172 354.7326510122943L1235.0490833727154 354.7326510122943Q1236.706542003706 343.61624743547594 1236.706542003706 333.72864939542654L1236.706542003706 333.72864939542654L1236.5065038930693 327.356006727996L1236.5065038930693 326.75589239608547Q1252.5381296169644 321.1834021712022 1266.7408354721797 321.1834021712022L1266.7408354721797 321.1834021712022Q1267.569564787675 325.29847187573137 1267.569564787675 331.4710764325252Q1267.569564787675 337.64368098931897 1264.0546094150563 354.7326510122943L1264.0546094150563 354.7326510122943Z " fill="#a04ef6" transform="matrix(0.6814483467889099,0,0,0.6814483467889099,0,46.281983602617544)"/></g></svg>